<svg width="24" height="24" viewBox="0 0 24 24" fill="none" xmlns="http://www.w3.org/2000/svg">
<g id="icon/tab">
<path id="Vector" d="M2.57222 22.8691C2.74576 22.9595 2.94188 23.0046 3.1402 22.9996C3.33852 22.9947 3.53182 22.9398 3.7 22.8408L12 17.9597L20.3 22.8408C20.4682 22.9397 20.6615 22.9945 20.8597 22.9994C21.058 23.0043 21.254 22.9591 21.4275 22.8687C21.601 22.7782 21.7456 22.6457 21.8462 22.4849C21.9469 22.3241 22 22.1409 22 21.9543V3.13633C22 2.30452 21.6488 1.50678 21.0237 0.918609C20.3986 0.330433 19.5507 0 18.6667 0H5.33333C4.44928 0 3.60143 0.330433 2.97631 0.918609C2.35119 1.50678 2 2.30452 2 3.13633V21.9543C1.9999 22.1409 2.05292 22.3242 2.15355 22.4851C2.25417 22.6459 2.39874 22.7785 2.57222 22.8691ZM4.22222 3.13633C4.22222 2.85906 4.33929 2.59315 4.54766 2.39709C4.75603 2.20103 5.03865 2.09088 5.33333 2.09088H18.6667C18.9614 2.09088 19.244 2.20103 19.4523 2.39709C19.6607 2.59315 19.7778 2.85906 19.7778 3.13633V20.0725L12.5889 15.8447C12.4123 15.7409 12.2082 15.6858 12 15.6858C11.7918 15.6858 11.5877 15.7409 11.4111 15.8447L4.22222 20.0725V3.13633Z" fill="#141414"/>
</g>
</svg>
